<svg width="1166" height="470" viewBox="0 0 1166 470" xmlns="http://www.w3.org/2000/svg" role="img" aria-labelledby="title desc">
  <title id="title">Renakoni lab telemetry</title>
  <desc id="desc">A seven-day code energy trace and a constellation of most-used programming languages.</desc>
  <style>
    :root { --panel:#eef0ed; --panel-2:#e5e9e4; --line:#bfc8c0; --ink:#32373a; --muted:#6d7674; --mint:#3a9885; --coral:#d76d59; --violet:#7467a7; --amber:#c49338; --blue:#4c79a8; --aqua:#4b9da0; --rose:#b86f86; --lang-1:#3a9885; --lang-2:#7467a7; --lang-3:#d76d59; --lang-4:#c49338; --lang-5:#4c79a8; --lang-6:#4b9da0; --lang-7:#b86f86; --lang-8:#717b7a; }
    @media (prefers-color-scheme: dark) { :root { --panel:#191c22; --panel-2:#20252c; --line:#3b434b; --ink:#eef0ed; --muted:#9aa4a4; --mint:#78c8b0; --coral:#f08a72; --violet:#a395df; --amber:#e3bd61; --blue:#74a4d4; --aqua:#70c1c0; --rose:#d795aa; --lang-1:#78c8b0; --lang-2:#a395df; --lang-3:#f08a72; --lang-4:#e3bd61; --lang-5:#74a4d4; --lang-6:#70c1c0; --lang-7:#d795aa; --lang-8:#a3adac; } }
    text { letter-spacing:0; } .ui { font-family:-apple-system,BlinkMacSystemFont,"Segoe UI",sans-serif; } .mono { font-family:ui-monospace,SFMono-Regular,Consolas,monospace; }
    .trace { fill:none; stroke-linecap:round; stroke-linejoin:round; stroke-dasharray:1; stroke-dashoffset:1; animation:draw 1.4s cubic-bezier(.16,1,.3,1) forwards; }
    .node,.language { opacity:0; animation:appear .55s cubic-bezier(.16,1,.3,1) forwards; } .value { font-size:10px; font-weight:750; } .add { fill:var(--mint); } .del { fill:var(--coral); } .date,.language-label { fill:var(--muted); font-size:10px; font-weight:650; } .mark { font-size:11px; font-weight:800; }
    .scanner { animation:blink 1.8s ease-in-out infinite alternate; }
    @keyframes draw { to { stroke-dashoffset:0; } } @keyframes appear { to { opacity:1; } } @keyframes blink { to { opacity:.35; } }
    @media (prefers-reduced-motion:reduce) { .trace { animation:none; stroke-dashoffset:0; } .node,.language { animation:none; opacity:1; } .scanner { display:none; } }
  </style>
  <defs><pattern id="grid" width="16" height="16" patternUnits="userSpaceOnUse"><path d="M16 0H0V16" fill="none" stroke="var(--line)" stroke-width=".6" opacity=".16"/></pattern></defs>
  <rect x="1" y="1" width="1164" height="468" rx="18" fill="var(--panel)" stroke="var(--line)" stroke-width="2"/>
  <rect x="1" y="1" width="1164" height="468" rx="18" fill="url(#grid)"/>
  <rect x="22" y="20" width="8" height="8" rx="2" fill="var(--violet)"/><text x="42" y="30" class="ui" font-size="15" font-weight="750" fill="var(--ink)">LAB TELEMETRY</text>
  <text x="1142" y="30" text-anchor="end" class="mono" font-size="10" font-weight="700" fill="var(--muted)"><tspan fill="var(--mint)">+47.5k</tspan><tspan> / </tspan><tspan fill="var(--coral)">-10.5k</tspan><tspan> / UTC+8</tspan></text><path d="M22 48h1122" stroke="var(--line)"/>
  <text x="32" y="77" class="mono" font-size="11" font-weight="750" fill="var(--muted)">7 DAY ENERGY TRACE</text>
  <path d="M32 166h1102" stroke="var(--line)" stroke-dasharray="4 8"/><path d="M 58 166 L 58 83 C 87.2 84.0, 174.7 89.8, 233 89 C 291.3 88.2, 349.7 77.8, 408 78 C 466.3 78.2, 524.7 89.0, 583 90 C 641.3 91.0, 699.7 83.2, 758 84 C 816.3 84.8, 874.7 81.3, 933 95 C 991.3 108.7, 1078.8 154.2, 1108 166 L 1108 166 Z" fill="var(--mint)" opacity=".08"/><path d="M 58 166 L 58 224 C 87.2 222.3, 174.7 215.0, 233 214 C 291.3 213.0, 349.7 218.3, 408 218 C 466.3 217.7, 524.7 210.7, 583 212 C 641.3 213.3, 699.7 227.5, 758 226 C 816.3 224.5, 874.7 213.0, 933 203 C 991.3 193.0, 1078.8 172.2, 1108 166 L 1108 166 Z" fill="var(--coral)" opacity=".07"/>
  <path d="M 58 83 C 87.2 84.0, 174.7 89.8, 233 89 C 291.3 88.2, 349.7 77.8, 408 78 C 466.3 78.2, 524.7 89.0, 583 90 C 641.3 91.0, 699.7 83.2, 758 84 C 816.3 84.8, 874.7 81.3, 933 95 C 991.3 108.7, 1078.8 154.2, 1108 166" class="trace" pathLength="1" stroke="var(--mint)" stroke-width="3"/><path d="M 58 224 C 87.2 222.3, 174.7 215.0, 233 214 C 291.3 213.0, 349.7 218.3, 408 218 C 466.3 217.7, 524.7 210.7, 583 212 C 641.3 213.3, 699.7 227.5, 758 226 C 816.3 224.5, 874.7 213.0, 933 203 C 991.3 193.0, 1078.8 172.2, 1108 166" class="trace" pathLength="1" stroke="var(--coral)" stroke-width="2" style="animation-delay:.12s"/>
  <g class="node" style="animation-delay:0.00s">
          <rect x="53" y="78" width="10" height="10" rx="2" transform="rotate(45 58 83)" fill="var(--mint)"/>
          <rect x="54" y="220" width="8" height="8" rx="2" transform="rotate(45 58 224)" fill="var(--coral)"/>
          <text x="58" y="71" text-anchor="middle" class="mono value add">+9.4k</text>
          <text x="58" y="243" text-anchor="middle" class="mono value del">-3.4k</text>
          <text x="58" y="266" text-anchor="middle" class="mono date">9/12</text>
        </g><g class="node" style="animation-delay:0.08s">
          <rect x="228" y="84" width="10" height="10" rx="2" transform="rotate(45 233 89)" fill="var(--mint)"/>
          <rect x="229" y="210" width="8" height="8" rx="2" transform="rotate(45 233 214)" fill="var(--coral)"/>
          <text x="233" y="77" text-anchor="middle" class="mono value add">+5.2k</text>
          <text x="233" y="233" text-anchor="middle" class="mono value del">-853</text>
          <text x="233" y="266" text-anchor="middle" class="mono date">9/13</text>
        </g><g class="node" style="animation-delay:0.16s">
          <rect x="403" y="73" width="10" height="10" rx="2" transform="rotate(45 408 78)" fill="var(--mint)"/>
          <rect x="404" y="214" width="8" height="8" rx="2" transform="rotate(45 408 218)" fill="var(--coral)"/>
          <text x="408" y="66" text-anchor="middle" class="mono value add">+17.1k</text>
          <text x="408" y="237" text-anchor="middle" class="mono value del">-1.3k</text>
          <text x="408" y="266" text-anchor="middle" class="mono date">9/14</text>
        </g><g class="node" style="animation-delay:0.24s">
          <rect x="578" y="85" width="10" height="10" rx="2" transform="rotate(45 583 90)" fill="var(--mint)"/>
          <rect x="579" y="208" width="8" height="8" rx="2" transform="rotate(45 583 212)" fill="var(--coral)"/>
          <text x="583" y="78" text-anchor="middle" class="mono value add">+4.7k</text>
          <text x="583" y="231" text-anchor="middle" class="mono value del">-597</text>
          <text x="583" y="266" text-anchor="middle" class="mono date">9/15</text>
        </g><g class="node" style="animation-delay:0.32s">
          <rect x="753" y="79" width="10" height="10" rx="2" transform="rotate(45 758 84)" fill="var(--mint)"/>
          <rect x="754" y="222" width="8" height="8" rx="2" transform="rotate(45 758 226)" fill="var(--coral)"/>
          <text x="758" y="72" text-anchor="middle" class="mono value add">+8.6k</text>
          <text x="758" y="245" text-anchor="middle" class="mono value del">-4.2k</text>
          <text x="758" y="266" text-anchor="middle" class="mono date">9/16</text>
        </g><g class="node" style="animation-delay:0.40s">
          <rect x="928" y="90" width="10" height="10" rx="2" transform="rotate(45 933 95)" fill="var(--mint)"/>
          <rect x="929" y="199" width="8" height="8" rx="2" transform="rotate(45 933 203)" fill="var(--coral)"/>
          <text x="933" y="83" text-anchor="middle" class="mono value add">+2.7k</text>
          <text x="933" y="222" text-anchor="middle" class="mono value del">-183</text>
          <text x="933" y="266" text-anchor="middle" class="mono date">9/17</text>
        </g><g class="node" style="animation-delay:0.48s">
          <rect x="1103" y="161" width="10" height="10" rx="2" transform="rotate(45 1108 166)" fill="var(--mint)"/>
          <rect x="1104" y="162" width="8" height="8" rx="2" transform="rotate(45 1108 166)" fill="var(--coral)"/>
          <text x="1108" y="154" text-anchor="middle" class="mono value add">+0</text>
          <text x="1108" y="185" text-anchor="middle" class="mono value del">-0</text>
          <text x="1108" y="266" text-anchor="middle" class="mono date">9/18</text>
        </g><path d="M22 283h1122" stroke="var(--line)"/>
  <text x="32" y="313" class="mono" font-size="11" font-weight="750" fill="var(--muted)">LANGUAGE CONSTELLATION</text>
  <text x="1134" y="313" text-anchor="end" class="mono" font-size="10" font-weight="650" fill="var(--muted)">23 SIGNALS / 17.7 MB INDEXED</text>
  <path id="route" d="M 84 366 L 228 393 L 372 350 L 516 391 L 660 352 L 804 390 L 948 354 L 1082 386" fill="none" stroke="var(--line)" stroke-width="1.5" stroke-dasharray="3 7"/>
  <g class="language" style="animation-delay:0.35s">
          <circle cx="84" cy="366" r="36" fill="var(--lang-1)" opacity="0.2"/>
          <circle cx="84" cy="366" r="30" fill="var(--panel)" stroke="var(--lang-1)" stroke-width="2"/>
          <text x="84" y="370" text-anchor="middle" class="mono mark" fill="var(--lang-1)">TS</text>
          <text x="84" y="419" text-anchor="middle" class="ui language-label">TypeScript 34.6%</text>
        </g><g class="language" style="animation-delay:0.42s">
          <circle cx="228" cy="393" r="34" fill="var(--lang-2)" opacity="0.2"/>
          <circle cx="228" cy="393" r="28" fill="var(--panel)" stroke="var(--lang-2)" stroke-width="2"/>
          <text x="228" y="397" text-anchor="middle" class="mono mark" fill="var(--lang-2)">KOT</text>
          <text x="228" y="444" text-anchor="middle" class="ui language-label">Kotlin 26.9%</text>
        </g><g class="language" style="animation-delay:0.49s">
          <circle cx="372" cy="350" r="28" fill="var(--lang-3)" opacity="0.2"/>
          <circle cx="372" cy="350" r="22" fill="var(--panel)" stroke="var(--lang-3)" stroke-width="2"/>
          <text x="372" y="354" text-anchor="middle" class="mono mark" fill="var(--lang-3)">PY</text>
          <text x="372" y="395" text-anchor="middle" class="ui language-label">Python 11.5%</text>
        </g><g class="language" style="animation-delay:0.56s">
          <circle cx="516" cy="391" r="27" fill="var(--lang-4)" opacity="0.2"/>
          <circle cx="516" cy="391" r="21" fill="var(--panel)" stroke="var(--lang-4)" stroke-width="2"/>
          <text x="516" y="395" text-anchor="middle" class="mono mark" fill="var(--lang-4)">CSS</text>
          <text x="516" y="435" text-anchor="middle" class="ui language-label">CSS 8.5%</text>
        </g><g class="language" style="animation-delay:0.63s">
          <circle cx="660" cy="352" r="24" fill="var(--lang-5)" opacity="0.2"/>
          <circle cx="660" cy="352" r="18" fill="var(--panel)" stroke="var(--lang-5)" stroke-width="2"/>
          <text x="660" y="356" text-anchor="middle" class="mono mark" fill="var(--lang-5)">JAVA</text>
          <text x="660" y="393" text-anchor="middle" class="ui language-label">Java 4.7%</text>
        </g><g class="language" style="animation-delay:0.70s">
          <circle cx="804" cy="390" r="24" fill="var(--lang-6)" opacity="0.2"/>
          <circle cx="804" cy="390" r="18" fill="var(--panel)" stroke="var(--lang-6)" stroke-width="2"/>
          <text x="804" y="394" text-anchor="middle" class="mono mark" fill="var(--lang-6)">DART</text>
          <text x="804" y="431" text-anchor="middle" class="ui language-label">Dart 4.2%</text>
        </g><g class="language" style="animation-delay:0.77s">
          <circle cx="948" cy="354" r="24" fill="var(--lang-7)" opacity="0.2"/>
          <circle cx="948" cy="354" r="18" fill="var(--panel)" stroke="var(--lang-7)" stroke-width="2"/>
          <text x="948" y="358" text-anchor="middle" class="mono mark" fill="var(--lang-7)">VUE</text>
          <text x="948" y="395" text-anchor="middle" class="ui language-label">Vue 4.0%</text>
        </g><g class="language" style="animation-delay:0.84s">
          <circle cx="1082" cy="386" r="25" fill="var(--lang-8)" opacity="0.2"/>
          <circle cx="1082" cy="386" r="19" fill="var(--panel)" stroke="var(--lang-8)" stroke-width="2"/>
          <text x="1082" y="390" text-anchor="middle" class="mono mark" fill="var(--lang-8)">+</text>
          <text x="1082" y="428" text-anchor="middle" class="ui language-label">Other 5.6%</text>
        </g><circle class="scanner" r="4" fill="var(--amber)"><animateMotion dur="12s" repeatCount="indefinite"><mpath href="#route"/></animateMotion></circle>
</svg>