
    <svg width="640" height="320" xmlns="http://www.w3.org/2000/svg">
        <style>
            .text { font-family: -apple-system, BlinkMacSystemFont, "Segoe UI", Roboto, sans-serif; }
            .title { font-weight: 650; font-size: 17px; fill: #e6edf3; }
            .legend { font-size: 11px; fill: #8b949e; }
            .label { font-size: 10px; fill: #8b949e; }
            .axis { stroke: #30363d; stroke-width: 1; }
            .stat { font-size: 10px; font-weight: 650; }
            .add { fill: #3fb950; }
            .del { fill: #f85149; }
        </style>
        <rect width="100%" height="100%" fill="#0d1117" rx="8" stroke="#30363d" stroke-width="1"/>
        <rect x="1" y="1" width="638" height="62" fill="#111820" rx="8"/>

        <text x="25" y="39" class="text title">7-Day Code Activity</text>
        <text x="486" y="39" class="text legend">+ additions</text>
        <text x="568" y="39" class="text legend">- deletions</text>
        <line x1="25" y1="176" x2="615" y2="176" class="axis" stroke-dasharray="4" />

        <rect x="60" y="169.8892518784711" width="38" height="6.110748121528912" fill="#3fb950" rx="3" /><rect x="60" y="177" width="38" height="2" fill="#f85149" rx="3" /><text x="79" y="287" class="text label" text-anchor="middle">4/14</text><text x="79" y="161.8892518784711" class="text stat add" text-anchor="middle">+870</text><text x="79" y="194" class="text stat del" text-anchor="middle">-62</text><rect x="130" y="137.6638353479255" width="38" height="38.33616465207449" fill="#3fb950" rx="3" /><rect x="130" y="177" width="38" height="2" fill="#f85149" rx="3" /><text x="149" y="287" class="text label" text-anchor="middle">4/15</text><text x="149" y="129.6638353479255" class="text stat add" text-anchor="middle">+5.5k</text><text x="149" y="194" class="text stat del" text-anchor="middle">-284</text><rect x="200" y="95.68931721659588" width="38" height="80.31068278340412" fill="#3fb950" rx="3" /><rect x="200" y="177" width="38" height="0" fill="#f85149" rx="3" /><text x="219" y="287" class="text label" text-anchor="middle">4/16</text><text x="219" y="87.68931721659588" class="text stat add" text-anchor="middle">+11.4k</text><rect x="270" y="130.11319830120874" width="38" height="45.886801698791245" fill="#3fb950" rx="3" /><rect x="270" y="177" width="38" height="10.142437112054884" fill="#f85149" rx="3" /><text x="289" y="287" class="text label" text-anchor="middle">4/17</text><text x="289" y="122.11319830120874" class="text stat add" text-anchor="middle">+6.5k</text><text x="289" y="202.1424371120549" class="text stat del" text-anchor="middle">-1.4k</text><rect x="340" y="163.08314276380267" width="38" height="12.916857236197322" fill="#3fb950" rx="3" /><rect x="340" y="177" width="38" height="2.4162038549493627" fill="#f85149" rx="3" /><text x="359" y="287" class="text label" text-anchor="middle">4/18</text><text x="359" y="155.08314276380267" class="text stat add" text-anchor="middle">+1.8k</text><text x="359" y="194.41620385494937" class="text stat del" text-anchor="middle">-344</text><rect x="410" y="108.15664815419798" width="38" height="67.84335184580202" fill="#3fb950" rx="3" /><rect x="410" y="177" width="38" height="0" fill="#f85149" rx="3" /><text x="429" y="287" class="text label" text-anchor="middle">4/19</text><text x="429" y="100.15664815419798" class="text stat add" text-anchor="middle">+9.7k</text><rect x="480" y="90" width="38" height="86" fill="#3fb950" rx="3" /><rect x="480" y="177" width="38" height="5.506697157791571" fill="#f85149" rx="3" /><text x="499" y="287" class="text label" text-anchor="middle">4/20</text><text x="499" y="82" class="text stat add" text-anchor="middle">+12.2k</text><text x="499" y="197.50669715779156" class="text stat del" text-anchor="middle">-784</text>
    </svg>