
    <svg width="640" height="320" xmlns="http://www.w3.org/2000/svg">
        <style>
            .text { font-family: -apple-system, BlinkMacSystemFont, "Segoe UI", Roboto, sans-serif; }
            .title { font-weight: 650; font-size: 17px; fill: #e6edf3; }
            .legend { font-size: 11px; fill: #8b949e; }
            .label { font-size: 10px; fill: #8b949e; }
            .axis { stroke: #30363d; stroke-width: 1; }
            .stat { font-size: 10px; font-weight: 650; }
            .add { fill: #3fb950; }
            .del { fill: #f85149; }
        </style>
        <rect width="100%" height="100%" fill="#0d1117" rx="8" stroke="#30363d" stroke-width="1"/>
        <rect x="1" y="1" width="638" height="62" fill="#111820" rx="8"/>

        <text x="25" y="39" class="text title">7-Day Code Activity</text>
        <text x="486" y="39" class="text legend">+ additions</text>
        <text x="568" y="39" class="text legend">- deletions</text>
        <line x1="25" y1="176" x2="615" y2="176" class="axis" stroke-dasharray="4" />

        <rect x="60" y="90" width="38" height="86" fill="#3fb950" rx="3" /><rect x="60" y="177" width="38" height="12.504994268871787" fill="#f85149" rx="3" /><text x="79" y="287" class="text label" text-anchor="middle">5/11</text><text x="79" y="82" class="text stat add" text-anchor="middle">+24.4k</text><text x="79" y="204.5049942688718" class="text stat del" text-anchor="middle">-3.6k</text><rect x="130" y="167.1775012280989" width="38" height="8.822498771901097" fill="#3fb950" rx="3" /><rect x="130" y="177" width="38" height="6.572867201571967" fill="#f85149" rx="3" /><text x="149" y="287" class="text label" text-anchor="middle">5/12</text><text x="149" y="159.1775012280989" class="text stat add" text-anchor="middle">+2.5k</text><text x="149" y="198.57286720157197" class="text stat del" text-anchor="middle">-1.9k</text><rect x="200" y="167.82176191255937" width="38" height="8.178238087440642" fill="#3fb950" rx="3" /><rect x="200" y="177" width="38" height="2" fill="#f85149" rx="3" /><text x="219" y="287" class="text label" text-anchor="middle">5/13</text><text x="219" y="159.82176191255937" class="text stat add" text-anchor="middle">+2.3k</text><text x="219" y="194" class="text stat del" text-anchor="middle">-321</text><rect x="270" y="108.63075159652857" width="38" height="67.36924840347143" fill="#3fb950" rx="3" /><rect x="270" y="177" width="38" height="5.527263795644343" fill="#f85149" rx="3" /><text x="289" y="287" class="text label" text-anchor="middle">5/14</text><text x="289" y="100.63075159652857" class="text stat add" text-anchor="middle">+19.1k</text><text x="289" y="197.52726379564433" class="text stat del" text-anchor="middle">-1.6k</text><rect x="340" y="164.24840347142623" width="38" height="11.751596528573767" fill="#3fb950" rx="3" /><rect x="340" y="177" width="38" height="2" fill="#f85149" rx="3" /><text x="359" y="287" class="text label" text-anchor="middle">5/15</text><text x="359" y="156.24840347142623" class="text stat add" text-anchor="middle">+3.3k</text><text x="359" y="194" class="text stat del" text-anchor="middle">-310</text><rect x="410" y="140.69592271164237" width="38" height="35.30407728835762" fill="#3fb950" rx="3" /><rect x="410" y="177" width="38" height="32.75519895202227" fill="#f85149" rx="3" /><text x="429" y="287" class="text label" text-anchor="middle">5/16</text><text x="429" y="132.69592271164237" class="text stat add" text-anchor="middle">+10.0k</text><text x="429" y="224.75519895202228" class="text stat del" text-anchor="middle">-9.3k</text><rect x="480" y="173.08498444408056" width="38" height="2.9150155559194366" fill="#3fb950" rx="3" /><rect x="480" y="177" width="38" height="2" fill="#f85149" rx="3" /><text x="499" y="287" class="text label" text-anchor="middle">5/17</text><text x="499" y="165.08498444408056" class="text stat add" text-anchor="middle">+828</text><text x="499" y="194" class="text stat del" text-anchor="middle">-20</text>
    </svg>