
    <svg width="640" height="320" xmlns="http://www.w3.org/2000/svg">
        <style>
            .text { font-family: -apple-system, BlinkMacSystemFont, "Segoe UI", Roboto, sans-serif; }
            .title { font-weight: 650; font-size: 17px; fill: #e6edf3; }
            .legend { font-size: 11px; fill: #8b949e; }
            .label { font-size: 10px; fill: #8b949e; }
            .axis { stroke: #30363d; stroke-width: 1; }
            .stat { font-size: 10px; font-weight: 650; }
            .add { fill: #3fb950; }
            .del { fill: #f85149; }
        </style>
        <rect width="100%" height="100%" fill="#0d1117" rx="8" stroke="#30363d" stroke-width="1"/>
        <rect x="1" y="1" width="638" height="62" fill="#111820" rx="8"/>

        <text x="25" y="39" class="text title">7-Day Code Activity</text>
        <text x="486" y="39" class="text legend">+ additions</text>
        <text x="568" y="39" class="text legend">- deletions</text>
        <line x1="25" y1="176" x2="615" y2="176" class="axis" stroke-dasharray="4" />

        <rect x="60" y="162.35113460311675" width="38" height="13.648865396883258" fill="#3fb950" rx="3" /><rect x="60" y="177" width="38" height="2" fill="#f85149" rx="3" /><text x="79" y="287" class="text label" text-anchor="middle">7/8</text><text x="79" y="154.35113460311675" class="text stat add" text-anchor="middle">+3.5k</text><text x="79" y="194" class="text stat del" text-anchor="middle">-11</text><rect x="130" y="90" width="38" height="86" fill="#3fb950" rx="3" /><rect x="130" y="177" width="38" height="17.30110270664358" fill="#f85149" rx="3" /><text x="149" y="287" class="text label" text-anchor="middle">7/9</text><text x="149" y="82" class="text stat add" text-anchor="middle">+21.9k</text><text x="149" y="209.30110270664358" class="text stat del" text-anchor="middle">-4.4k</text><rect x="200" y="114.89164312403172" width="38" height="61.10835687596828" fill="#3fb950" rx="3" /><rect x="200" y="177" width="38" height="25.165952793219724" fill="#f85149" rx="3" /><text x="219" y="287" class="text label" text-anchor="middle">7/10</text><text x="219" y="106.89164312403172" class="text stat add" text-anchor="middle">+15.6k</text><text x="219" y="217.16595279321973" class="text stat del" text-anchor="middle">-6.4k</text><rect x="270" y="132.60029162489747" width="38" height="43.39970837510253" fill="#3fb950" rx="3" /><rect x="270" y="177" width="38" height="9.28342294723412" fill="#f85149" rx="3" /><text x="289" y="287" class="text label" text-anchor="middle">7/11</text><text x="289" y="124.60029162489747" class="text stat add" text-anchor="middle">+11.1k</text><text x="289" y="201.28342294723413" class="text stat del" text-anchor="middle">-2.4k</text><rect x="340" y="125.46040280688965" width="38" height="50.53959719311036" fill="#3fb950" rx="3" /><rect x="340" y="177" width="38" height="4.7769069534311495" fill="#f85149" rx="3" /><text x="359" y="287" class="text label" text-anchor="middle">7/12</text><text x="359" y="117.46040280688965" class="text stat add" text-anchor="middle">+12.9k</text><text x="359" y="196.77690695343114" class="text stat del" text-anchor="middle">-1.2k</text><rect x="410" y="144.94814544791763" width="38" height="31.051854552082386" fill="#3fb950" rx="3" /><rect x="410" y="177" width="38" height="3.5229198942859745" fill="#f85149" rx="3" /><text x="429" y="287" class="text label" text-anchor="middle">7/13</text><text x="429" y="136.94814544791763" class="text stat add" text-anchor="middle">+7.9k</text><text x="429" y="195.52291989428596" class="text stat del" text-anchor="middle">-899</text><rect x="480" y="176" width="38" height="0" fill="#3fb950" rx="3" /><rect x="480" y="177" width="38" height="0" fill="#f85149" rx="3" /><text x="499" y="287" class="text label" text-anchor="middle">7/14</text>
    </svg>