
    <svg width="640" height="320" xmlns="http://www.w3.org/2000/svg">
        <style>
            .text { font-family: -apple-system, BlinkMacSystemFont, "Segoe UI", Roboto, sans-serif; }
            .title { font-weight: 650; font-size: 17px; fill: #e6edf3; }
            .legend { font-size: 11px; fill: #8b949e; }
            .label { font-size: 10px; fill: #8b949e; }
            .axis { stroke: #30363d; stroke-width: 1; }
            .stat { font-size: 10px; font-weight: 650; }
            .add { fill: #3fb950; }
            .del { fill: #f85149; }
        </style>
        <rect width="100%" height="100%" fill="#0d1117" rx="8" stroke="#30363d" stroke-width="1"/>
        <rect x="1" y="1" width="638" height="62" fill="#111820" rx="8"/>

        <text x="25" y="39" class="text title">7-Day Code Activity</text>
        <text x="486" y="39" class="text legend">+ additions</text>
        <text x="568" y="39" class="text legend">- deletions</text>
        <line x1="25" y1="176" x2="615" y2="176" class="axis" stroke-dasharray="4" />

        <rect x="60" y="90" width="38" height="86" fill="#3fb950" rx="3" /><rect x="60" y="177" width="38" height="10.889731737189365" fill="#f85149" rx="3" /><text x="79" y="287" class="text label" text-anchor="middle">5/9</text><text x="79" y="82" class="text stat add" text-anchor="middle">+25.3k</text><text x="79" y="202.88973173718938" class="text stat del" text-anchor="middle">-3.2k</text><rect x="130" y="158.35557662676308" width="38" height="17.644423373236933" fill="#3fb950" rx="3" /><rect x="130" y="177" width="38" height="2" fill="#f85149" rx="3" /><text x="149" y="287" class="text label" text-anchor="middle">5/10</text><text x="149" y="150.35557662676308" class="text stat add" text-anchor="middle">+5.2k</text><text x="149" y="194" class="text stat del" text-anchor="middle">-167</text><rect x="200" y="93.00019754257042" width="38" height="82.99980245742958" fill="#3fb950" rx="3" /><rect x="200" y="177" width="38" height="12.068744814507527" fill="#f85149" rx="3" /><text x="219" y="287" class="text label" text-anchor="middle">5/11</text><text x="219" y="85.00019754257042" class="text stat add" text-anchor="middle">+24.4k</text><text x="219" y="204.06874481450754" class="text stat del" text-anchor="middle">-3.6k</text><rect x="270" y="167.48528307850341" width="38" height="8.514716921496582" fill="#3fb950" rx="3" /><rect x="270" y="177" width="38" height="6.343566038481292" fill="#f85149" rx="3" /><text x="289" y="287" class="text label" text-anchor="middle">5/12</text><text x="289" y="159.48528307850341" class="text stat add" text-anchor="middle">+2.5k</text><text x="289" y="198.3435660384813" class="text stat del" text-anchor="middle">-1.9k</text><rect x="340" y="168.10706807316976" width="38" height="7.892931926830232" fill="#3fb950" rx="3" /><rect x="340" y="177" width="38" height="2" fill="#f85149" rx="3" /><text x="359" y="287" class="text label" text-anchor="middle">5/13</text><text x="359" y="160.10706807316976" class="text stat add" text-anchor="middle">+2.3k</text><text x="359" y="194" class="text stat del" text-anchor="middle">-321</text><rect x="410" y="110.98099640472522" width="38" height="65.01900359527478" fill="#3fb950" rx="3" /><rect x="410" y="177" width="38" height="5.3344395717277076" fill="#f85149" rx="3" /><text x="429" y="287" class="text label" text-anchor="middle">5/14</text><text x="429" y="102.98099640472522" class="text stat add" text-anchor="middle">+19.1k</text><text x="429" y="197.3344395717277" class="text stat del" text-anchor="middle">-1.6k</text><rect x="480" y="164.65836987870887" width="38" height="11.34163012129114" fill="#3fb950" rx="3" /><rect x="480" y="177" width="38" height="2" fill="#f85149" rx="3" /><text x="499" y="287" class="text label" text-anchor="middle">5/15</text><text x="499" y="156.65836987870887" class="text stat add" text-anchor="middle">+3.3k</text><text x="499" y="194" class="text stat del" text-anchor="middle">-310</text>
    </svg>