
    <svg width="640" height="320" xmlns="http://www.w3.org/2000/svg">
        <style>
            .text { font-family: -apple-system, BlinkMacSystemFont, "Segoe UI", Roboto, sans-serif; }
            .title { font-weight: bold; font-size: 18px; fill: #c9d1d9; }
            .label { font-size: 10px; fill: #8b949e; }
            .axis { stroke: #30363d; stroke-width: 1; }
            .stat { font-size: 10px; font-weight: bold; }
            .add { fill: #3fb950; }
            .del { fill: #f85149; }
        </style>
        <rect width="100%" height="100%" fill="#0d1117" rx="10" stroke="#30363d" stroke-width="2"/>

        <text x="25" y="40" class="text title">7日代码工作量</text>
        <line x1="25" y1="160" x2="615" y2="160" class="axis" stroke-dasharray="4" />

        <rect x="60" y="152.88459965649793" width="38" height="7.115400343502086" fill="#3fb950" rx="3" /><rect x="60" y="161" width="38" height="2" fill="#f85149" rx="3" /><text x="79" y="285" class="text label" text-anchor="middle">4/14</text><text x="79" y="144.88459965649793" class="text stat add" text-anchor="middle">+870</text><text x="79" y="178" class="text stat del" text-anchor="middle">-62</text><rect x="130" y="115.36108612088002" width="38" height="44.63891387911998" fill="#3fb950" rx="3" /><rect x="130" y="161" width="38" height="2.3227283879937843" fill="#f85149" rx="3" /><text x="149" y="285" class="text label" text-anchor="middle">4/15</text><text x="149" y="107.36108612088002" class="text stat add" text-anchor="middle">+5458</text><text x="149" y="178.32272838799378" class="text stat del" text-anchor="middle">-284</text><rect x="200" y="66.48564651999672" width="38" height="93.51435348000328" fill="#3fb950" rx="3" /><rect x="200" y="161" width="38" height="0" fill="#f85149" rx="3" /><text x="219" y="285" class="text label" text-anchor="middle">4/16</text><text x="219" y="58.48564651999672" class="text stat add" text-anchor="middle">+11434</text><rect x="270" y="106.56906845505848" width="38" height="53.430931544941515" fill="#3fb950" rx="3" /><rect x="270" y="161" width="38" height="11.809928845996565" fill="#f85149" rx="3" /><text x="289" y="285" class="text label" text-anchor="middle">4/17</text><text x="289" y="98.56906845505848" class="text stat add" text-anchor="middle">+6533</text><text x="289" y="187.80992884599655" class="text stat del" text-anchor="middle">-1444</text><rect x="340" y="144.9595158256318" width="38" height="15.040484174368201" fill="#3fb950" rx="3" /><rect x="340" y="161" width="38" height="2.8134456530628937" fill="#f85149" rx="3" /><text x="359" y="285" class="text label" text-anchor="middle">4/18</text><text x="359" y="136.9595158256318" class="text stat add" text-anchor="middle">+1839</text><text x="359" y="178.8134456530629" class="text stat del" text-anchor="middle">-344</text><rect x="410" y="81.00269894495787" width="38" height="78.99730105504213" fill="#3fb950" rx="3" /><rect x="410" y="161" width="38" height="0" fill="#f85149" rx="3" /><text x="429" y="285" class="text label" text-anchor="middle">4/19</text><text x="429" y="73.00269894495787" class="text stat add" text-anchor="middle">+9659</text><rect x="480" y="60" width="38" height="100" fill="#3fb950" rx="3" /><rect x="480" y="161" width="38" height="6.346609961560482" fill="#f85149" rx="3" /><text x="499" y="285" class="text label" text-anchor="middle">4/20</text><text x="499" y="52" class="text stat add" text-anchor="middle">+12227</text><text x="499" y="182.3466099615605" class="text stat del" text-anchor="middle">-776</text>
    </svg>