
    <svg width="640" height="320" xmlns="http://www.w3.org/2000/svg">
        <style>
            .text { font-family: -apple-system, BlinkMacSystemFont, "Segoe UI", Roboto, sans-serif; }
            .title { font-weight: bold; font-size: 18px; fill: #c9d1d9; }
            .subtitle { font-size: 12px; fill: #8b949e; }
            .label { font-size: 10px; fill: #8b949e; }
            .axis { stroke: #30363d; stroke-width: 1; }
            .stat { font-size: 10px; font-weight: bold; }
            .add { fill: #3fb950; }
            .del { fill: #f85149; }
        </style>
        <rect width="100%" height="100%" fill="#0d1117" rx="10" stroke="#30363d" stroke-width="2"/>
        
        <text x="25" y="40" class="text title">🚀 每日代码工作量 (Daily Workload)</text>
        <text x="25" y="60" class="text subtitle">Actual additions and deletions in the last 7 days</text>
        
        <line x1="25" y1="160" x2="615" y2="160" class="axis" stroke-dasharray="4" />
        
        <rect x="40" y="160" width="22" height="0" fill="#3fb950" rx="3" /><rect x="40" y="161" width="22" height="0" fill="#f85149" rx="3" /><text x="51" y="285" class="text label" text-anchor="middle">4/14</text><rect x="80" y="103.4931152293198" width="22" height="56.5068847706802" fill="#3fb950" rx="3" /><rect x="80" y="161" width="22" height="2.9402629671808675" fill="#f85149" rx="3" /><text x="91" y="285" class="text label" text-anchor="middle">4/15</text><text x="91" y="95.4931152293198" class="text stat add" text-anchor="middle">+5458</text><text x="91" y="178.94026296718087" class="text stat del" text-anchor="middle">-284</text><rect x="120" y="160" width="22" height="0" fill="#3fb950" rx="3" /><rect x="120" y="161" width="22" height="0" fill="#f85149" rx="3" /><text x="131" y="285" class="text label" text-anchor="middle">4/16</text><rect x="160" y="160" width="22" height="0" fill="#3fb950" rx="3" /><rect x="160" y="161" width="22" height="0" fill="#f85149" rx="3" /><text x="171" y="285" class="text label" text-anchor="middle">4/17</text><rect x="200" y="160" width="22" height="0" fill="#3fb950" rx="3" /><rect x="200" y="161" width="22" height="0" fill="#f85149" rx="3" /><text x="211" y="285" class="text label" text-anchor="middle">4/18</text><rect x="240" y="60" width="22" height="100" fill="#3fb950" rx="3" /><rect x="240" y="161" width="22" height="0" fill="#f85149" rx="3" /><text x="251" y="285" class="text label" text-anchor="middle">4/19</text><text x="251" y="52" class="text stat add" text-anchor="middle">+9659</text><rect x="280" y="156.02443317113574" width="22" height="3.9755668288642716" fill="#3fb950" rx="3" /><rect x="280" y="161" width="22" height="2.2880215343203227" fill="#f85149" rx="3" /><text x="291" y="285" class="text label" text-anchor="middle">4/20</text><text x="291" y="148.02443317113574" class="text stat add" text-anchor="middle">+384</text><text x="291" y="178.28802153432034" class="text stat del" text-anchor="middle">-221</text>
    </svg>