
    <svg width="640" height="320" xmlns="http://www.w3.org/2000/svg">
        <style>
            .text { font-family: -apple-system, BlinkMacSystemFont, "Segoe UI", Roboto, sans-serif; }
            .title { font-weight: 650; font-size: 17px; fill: #e6edf3; }
            .legend { font-size: 11px; fill: #8b949e; }
            .label { font-size: 10px; fill: #8b949e; }
            .axis { stroke: #30363d; stroke-width: 1; }
            .stat { font-size: 10px; font-weight: 650; }
            .add { fill: #3fb950; }
            .del { fill: #f85149; }
        </style>
        <rect width="100%" height="100%" fill="#0d1117" rx="8" stroke="#30363d" stroke-width="1"/>
        <rect x="1" y="1" width="638" height="62" fill="#111820" rx="8"/>

        <text x="25" y="39" class="text title">7-Day Code Activity</text>
        <text x="486" y="39" class="text legend">+ additions</text>
        <text x="568" y="39" class="text legend">- deletions</text>
        <line x1="25" y1="176" x2="615" y2="176" class="axis" stroke-dasharray="4" />

        <rect x="60" y="169.3204478995792" width="38" height="6.679552100420797" fill="#3fb950" rx="3" /><rect x="60" y="177" width="38" height="5.869909421581913" fill="#f85149" rx="3" /><text x="79" y="287" class="text label" text-anchor="middle">4/26</text><text x="79" y="161.3204478995792" class="text stat add" text-anchor="middle">+2.2k</text><text x="79" y="197.86990942158192" class="text stat del" text-anchor="middle">-1.9k</text><rect x="130" y="90" width="38" height="86" fill="#3fb950" rx="3" /><rect x="130" y="177" width="38" height="48.768704086727055" fill="#f85149" rx="3" /><text x="149" y="287" class="text label" text-anchor="middle">4/27</text><text x="149" y="82" class="text stat add" text-anchor="middle">+28.0k</text><text x="149" y="240.76870408672704" class="text stat del" text-anchor="middle">-15.9k</text><rect x="200" y="144.61407888167747" width="38" height="31.385921118322514" fill="#3fb950" rx="3" /><rect x="200" y="177" width="38" height="4.578774695100207" fill="#f85149" rx="3" /><text x="219" y="287" class="text label" text-anchor="middle">4/28</text><text x="219" y="136.61407888167747" class="text stat add" text-anchor="middle">+10.2k</text><text x="219" y="196.5787746951002" class="text stat del" text-anchor="middle">-1.5k</text><rect x="270" y="119.84330646886812" width="38" height="56.15669353113187" fill="#3fb950" rx="3" /><rect x="270" y="177" width="38" height="5.37001640396548" fill="#f85149" rx="3" /><text x="289" y="287" class="text label" text-anchor="middle">4/29</text><text x="289" y="111.84330646886812" class="text stat add" text-anchor="middle">+18.3k</text><text x="289" y="197.37001640396548" class="text stat del" text-anchor="middle">-1.8k</text><rect x="340" y="125.33906283431995" width="38" height="50.660937165680046" fill="#3fb950" rx="3" /><rect x="340" y="177" width="38" height="4.115683617430997" fill="#f85149" rx="3" /><text x="359" y="287" class="text label" text-anchor="middle">4/30</text><text x="359" y="117.33906283431995" class="text stat add" text-anchor="middle">+16.5k</text><text x="359" y="196.115683617431" class="text stat del" text-anchor="middle">-1.3k</text><rect x="410" y="176" width="38" height="0" fill="#3fb950" rx="3" /><rect x="410" y="177" width="38" height="0" fill="#f85149" rx="3" /><text x="429" y="287" class="text label" text-anchor="middle">5/1</text><rect x="480" y="176" width="38" height="0" fill="#3fb950" rx="3" /><rect x="480" y="177" width="38" height="0" fill="#f85149" rx="3" /><text x="499" y="287" class="text label" text-anchor="middle">5/2</text>
    </svg>