
    <svg width="640" height="320" xmlns="http://www.w3.org/2000/svg">
        <style>
            .text { font-family: -apple-system, BlinkMacSystemFont, "Segoe UI", Roboto, sans-serif; }
            .title { font-weight: 650; font-size: 17px; fill: #e6edf3; }
            .legend { font-size: 11px; fill: #8b949e; }
            .label { font-size: 10px; fill: #8b949e; }
            .axis { stroke: #30363d; stroke-width: 1; }
            .stat { font-size: 10px; font-weight: 650; }
            .add { fill: #3fb950; }
            .del { fill: #f85149; }
        </style>
        <rect width="100%" height="100%" fill="#0d1117" rx="8" stroke="#30363d" stroke-width="1"/>
        <rect x="1" y="1" width="638" height="62" fill="#111820" rx="8"/>

        <text x="25" y="39" class="text title">7-Day Code Activity</text>
        <text x="486" y="39" class="text legend">+ additions</text>
        <text x="568" y="39" class="text legend">- deletions</text>
        <line x1="25" y1="176" x2="615" y2="176" class="axis" stroke-dasharray="4" />

        <rect x="60" y="117.06463089238068" width="38" height="58.93536910761933" fill="#3fb950" rx="3" /><rect x="60" y="177" width="38" height="34.190927957308034" fill="#f85149" rx="3" /><text x="79" y="287" class="text label" text-anchor="middle">6/24</text><text x="79" y="109.06463089238068" class="text stat add" text-anchor="middle">+4.6k</text><text x="79" y="226.19092795730802" class="text stat del" text-anchor="middle">-2.7k</text><rect x="130" y="176" width="38" height="0" fill="#3fb950" rx="3" /><rect x="130" y="177" width="38" height="0" fill="#f85149" rx="3" /><text x="149" y="287" class="text label" text-anchor="middle">6/25</text><rect x="200" y="176" width="38" height="0" fill="#3fb950" rx="3" /><rect x="200" y="177" width="38" height="0" fill="#f85149" rx="3" /><text x="219" y="287" class="text label" text-anchor="middle">6/26</text><rect x="270" y="176" width="38" height="0" fill="#3fb950" rx="3" /><rect x="270" y="177" width="38" height="0" fill="#f85149" rx="3" /><text x="289" y="287" class="text label" text-anchor="middle">6/27</text><rect x="340" y="90" width="38" height="86" fill="#3fb950" rx="3" /><rect x="340" y="177" width="38" height="4.857100504002372" fill="#f85149" rx="3" /><text x="359" y="287" class="text label" text-anchor="middle">6/28</text><text x="359" y="82" class="text stat add" text-anchor="middle">+6.7k</text><text x="359" y="196.85710050400237" class="text stat del" text-anchor="middle">-381</text><rect x="410" y="121.93447969166914" width="38" height="54.06552030833086" fill="#3fb950" rx="3" /><rect x="410" y="177" width="38" height="2.205455084494515" fill="#f85149" rx="3" /><text x="429" y="287" class="text label" text-anchor="middle">6/29</text><text x="429" y="113.93447969166914" class="text stat add" text-anchor="middle">+4.2k</text><text x="429" y="194.2054550844945" class="text stat del" text-anchor="middle">-173</text><rect x="480" y="176" width="38" height="0" fill="#3fb950" rx="3" /><rect x="480" y="177" width="38" height="0" fill="#f85149" rx="3" /><text x="499" y="287" class="text label" text-anchor="middle">6/30</text>
    </svg>