
    <svg width="640" height="320" xmlns="http://www.w3.org/2000/svg">
        <style>
            .text { font-family: -apple-system, BlinkMacSystemFont, "Segoe UI", Roboto, sans-serif; }
            .title { font-weight: 650; font-size: 17px; fill: #e6edf3; }
            .legend { font-size: 11px; fill: #8b949e; }
            .label { font-size: 10px; fill: #8b949e; }
            .axis { stroke: #30363d; stroke-width: 1; }
            .stat { font-size: 10px; font-weight: 650; }
            .add { fill: #3fb950; }
            .del { fill: #f85149; }
        </style>
        <rect width="100%" height="100%" fill="#0d1117" rx="8" stroke="#30363d" stroke-width="1"/>
        <rect x="1" y="1" width="638" height="62" fill="#111820" rx="8"/>

        <text x="25" y="39" class="text title">7-Day Code Activity</text>
        <text x="486" y="39" class="text legend">+ additions</text>
        <text x="568" y="39" class="text legend">- deletions</text>
        <line x1="25" y1="176" x2="615" y2="176" class="axis" stroke-dasharray="4" />

        <rect x="60" y="108.289443378119" width="38" height="67.710556621881" fill="#3fb950" rx="3" /><rect x="60" y="177" width="38" height="86" fill="#f85149" rx="3" /><text x="79" y="287" class="text label" text-anchor="middle">5/8</text><text x="79" y="100.289443378119" class="text stat add" text-anchor="middle">+24.6k</text><text x="79" y="278" class="text stat del" text-anchor="middle">-31.3k</text><rect x="130" y="106.36641074856047" width="38" height="69.63358925143953" fill="#3fb950" rx="3" /><rect x="130" y="177" width="38" height="8.817338451695457" fill="#f85149" rx="3" /><text x="149" y="287" class="text label" text-anchor="middle">5/9</text><text x="149" y="98.36641074856047" class="text stat add" text-anchor="middle">+25.3k</text><text x="149" y="200.81733845169546" class="text stat del" text-anchor="middle">-3.2k</text><rect x="200" y="161.71343570057581" width="38" height="14.286564299424183" fill="#3fb950" rx="3" /><rect x="200" y="177" width="38" height="2" fill="#f85149" rx="3" /><text x="219" y="287" class="text label" text-anchor="middle">5/10</text><text x="219" y="153.71343570057581" class="text stat add" text-anchor="middle">+5.2k</text><text x="219" y="194" class="text stat del" text-anchor="middle">-167</text><rect x="270" y="108.7956493921945" width="38" height="67.2043506078055" fill="#3fb950" rx="3" /><rect x="270" y="177" width="38" height="9.771976967370442" fill="#f85149" rx="3" /><text x="289" y="287" class="text label" text-anchor="middle">5/11</text><text x="289" y="100.7956493921945" class="text stat add" text-anchor="middle">+24.4k</text><text x="289" y="201.77197696737045" class="text stat del" text-anchor="middle">-3.6k</text><rect x="340" y="169.10569417786309" width="38" height="6.894305822136916" fill="#3fb950" rx="3" /><rect x="340" y="177" width="38" height="5.136340371081254" fill="#f85149" rx="3" /><text x="359" y="287" class="text label" text-anchor="middle">5/12</text><text x="359" y="161.10569417786309" class="text stat add" text-anchor="middle">+2.5k</text><text x="359" y="197.13634037108125" class="text stat del" text-anchor="middle">-1.9k</text><rect x="410" y="169.60914907229687" width="38" height="6.390850927703135" fill="#3fb950" rx="3" /><rect x="410" y="177" width="38" height="2" fill="#f85149" rx="3" /><text x="429" y="287" class="text label" text-anchor="middle">5/13</text><text x="429" y="161.60914907229687" class="text stat add" text-anchor="middle">+2.3k</text><text x="429" y="194" class="text stat del" text-anchor="middle">-321</text><rect x="480" y="123.35457453614843" width="38" height="52.645425463851566" fill="#3fb950" rx="3" /><rect x="480" y="177" width="38" height="4.319257837492002" fill="#f85149" rx="3" /><text x="499" y="287" class="text label" text-anchor="middle">5/14</text><text x="499" y="115.35457453614843" class="text stat add" text-anchor="middle">+19.1k</text><text x="499" y="196.319257837492" class="text stat del" text-anchor="middle">-1.6k</text>
    </svg>