
    <svg width="640" height="320" xmlns="http://www.w3.org/2000/svg">
        <style>
            .text { font-family: -apple-system, BlinkMacSystemFont, "Segoe UI", Roboto, sans-serif; }
            .title { font-weight: 650; font-size: 17px; fill: #e6edf3; }
            .legend { font-size: 11px; fill: #8b949e; }
            .label { font-size: 10px; fill: #8b949e; }
            .axis { stroke: #30363d; stroke-width: 1; }
            .stat { font-size: 10px; font-weight: 650; }
            .add { fill: #3fb950; }
            .del { fill: #f85149; }
        </style>
        <rect width="100%" height="100%" fill="#0d1117" rx="8" stroke="#30363d" stroke-width="1"/>
        <rect x="1" y="1" width="638" height="62" fill="#111820" rx="8"/>

        <text x="25" y="39" class="text title">7-Day Code Activity</text>
        <text x="486" y="39" class="text legend">+ additions</text>
        <text x="568" y="39" class="text legend">- deletions</text>
        <line x1="25" y1="176" x2="615" y2="176" class="axis" stroke-dasharray="4" />

        <rect x="60" y="176" width="38" height="0" fill="#3fb950" rx="3" /><rect x="60" y="177" width="38" height="0" fill="#f85149" rx="3" /><text x="79" y="287" class="text label" text-anchor="middle">5/3</text><rect x="130" y="174" width="38" height="2" fill="#3fb950" rx="3" /><rect x="130" y="177" width="38" height="0" fill="#f85149" rx="3" /><text x="149" y="287" class="text label" text-anchor="middle">5/4</text><text x="149" y="166" class="text stat add" text-anchor="middle">+2</text><rect x="200" y="121.51407549584133" width="38" height="54.48592450415867" fill="#3fb950" rx="3" /><rect x="200" y="177" width="38" height="0" fill="#f85149" rx="3" /><text x="219" y="287" class="text label" text-anchor="middle">5/5</text><text x="219" y="113.51407549584133" class="text stat add" text-anchor="middle">+19.8k</text><rect x="270" y="176" width="38" height="0" fill="#3fb950" rx="3" /><rect x="270" y="177" width="38" height="0" fill="#f85149" rx="3" /><text x="289" y="287" class="text label" text-anchor="middle">5/6</text><rect x="340" y="132.68912348048624" width="38" height="43.310876519513755" fill="#3fb950" rx="3" /><rect x="340" y="177" width="38" height="2" fill="#f85149" rx="3" /><text x="359" y="287" class="text label" text-anchor="middle">5/7</text><text x="359" y="124.68912348048624" class="text stat add" text-anchor="middle">+15.7k</text><text x="359" y="194" class="text stat del" text-anchor="middle">-668</text><rect x="410" y="108.289443378119" width="38" height="67.710556621881" fill="#3fb950" rx="3" /><rect x="410" y="177" width="38" height="86" fill="#f85149" rx="3" /><text x="429" y="287" class="text label" text-anchor="middle">5/8</text><text x="429" y="100.289443378119" class="text stat add" text-anchor="middle">+24.6k</text><text x="429" y="278" class="text stat del" text-anchor="middle">-31.3k</text><rect x="480" y="106.36641074856047" width="38" height="69.63358925143953" fill="#3fb950" rx="3" /><rect x="480" y="177" width="38" height="8.817338451695457" fill="#f85149" rx="3" /><text x="499" y="287" class="text label" text-anchor="middle">5/9</text><text x="499" y="98.36641074856047" class="text stat add" text-anchor="middle">+25.3k</text><text x="499" y="200.81733845169546" class="text stat del" text-anchor="middle">-3.2k</text>
    </svg>