
    <svg width="640" height="320" xmlns="http://www.w3.org/2000/svg">
        <style>
            .text { font-family: -apple-system, BlinkMacSystemFont, "Segoe UI", Roboto, sans-serif; }
            .title { font-weight: 650; font-size: 17px; fill: #e6edf3; }
            .legend { font-size: 11px; fill: #8b949e; }
            .label { font-size: 10px; fill: #8b949e; }
            .axis { stroke: #30363d; stroke-width: 1; }
            .stat { font-size: 10px; font-weight: 650; }
            .add { fill: #3fb950; }
            .del { fill: #f85149; }
        </style>
        <rect width="100%" height="100%" fill="#0d1117" rx="8" stroke="#30363d" stroke-width="1"/>
        <rect x="1" y="1" width="638" height="62" fill="#111820" rx="8"/>

        <text x="25" y="39" class="text title">7-Day Code Activity</text>
        <text x="486" y="39" class="text legend">+ additions</text>
        <text x="568" y="39" class="text legend">- deletions</text>
        <line x1="25" y1="176" x2="615" y2="176" class="axis" stroke-dasharray="4" />

        <rect x="60" y="165.12370421561852" width="38" height="10.876295784381478" fill="#3fb950" rx="3" /><rect x="60" y="177" width="38" height="2" fill="#f85149" rx="3" /><text x="79" y="287" class="text label" text-anchor="middle">7/4</text><text x="79" y="157.12370421561852" class="text stat add" text-anchor="middle">+2.7k</text><text x="79" y="194" class="text stat del" text-anchor="middle">-339</text><rect x="130" y="176" width="38" height="0" fill="#3fb950" rx="3" /><rect x="130" y="177" width="38" height="0" fill="#f85149" rx="3" /><text x="149" y="287" class="text label" text-anchor="middle">7/5</text><rect x="200" y="174" width="38" height="2" fill="#3fb950" rx="3" /><rect x="200" y="177" width="38" height="2" fill="#f85149" rx="3" /><text x="219" y="287" class="text label" text-anchor="middle">7/6</text><text x="219" y="166" class="text stat add" text-anchor="middle">+253</text><text x="219" y="194" class="text stat del" text-anchor="middle">-198</text><rect x="270" y="167.88933425478" width="38" height="8.110665745219995" fill="#3fb950" rx="3" /><rect x="270" y="177" width="38" height="2" fill="#f85149" rx="3" /><text x="289" y="287" class="text label" text-anchor="middle">7/7</text><text x="289" y="159.88933425478" class="text stat add" text-anchor="middle">+2.0k</text><text x="289" y="194" class="text stat del" text-anchor="middle">-218</text><rect x="340" y="162.1995853489979" width="38" height="13.800414651002074" fill="#3fb950" rx="3" /><rect x="340" y="177" width="38" height="2" fill="#f85149" rx="3" /><text x="359" y="287" class="text label" text-anchor="middle">7/8</text><text x="359" y="154.1995853489979" class="text stat add" text-anchor="middle">+3.5k</text><text x="359" y="194" class="text stat del" text-anchor="middle">-11</text><rect x="410" y="90" width="38" height="86" fill="#3fb950" rx="3" /><rect x="410" y="177" width="38" height="17.140566689702833" fill="#f85149" rx="3" /><text x="429" y="287" class="text label" text-anchor="middle">7/9</text><text x="429" y="82" class="text stat add" text-anchor="middle">+21.7k</text><text x="429" y="209.14056668970284" class="text stat del" text-anchor="middle">-4.3k</text><rect x="480" y="176" width="38" height="0" fill="#3fb950" rx="3" /><rect x="480" y="177" width="38" height="0" fill="#f85149" rx="3" /><text x="499" y="287" class="text label" text-anchor="middle">7/10</text>
    </svg>