
    <svg width="640" height="320" xmlns="http://www.w3.org/2000/svg">
        <style>
            .text { font-family: -apple-system, BlinkMacSystemFont, "Segoe UI", Roboto, sans-serif; }
            .title { font-weight: bold; font-size: 18px; fill: #c9d1d9; }
            .subtitle { font-size: 12px; fill: #8b949e; }
            .label { font-size: 10px; fill: #8b949e; }
            .axis { stroke: #30363d; stroke-width: 1; }
            .stat { font-size: 10px; font-weight: bold; }
            .add { fill: #3fb950; }
            .del { fill: #f85149; }
        </style>
        <rect width="100%" height="100%" fill="#0d1117" rx="10" stroke="#30363d" stroke-width="2"/>
        
        <text x="25" y="40" class="text title">🚀 每日代码工作量 (Daily Workload)</text>
        <text x="25" y="60" class="text subtitle">最近 14 天的实际代码增删行数</text>
        
        <line x1="25" y1="160" x2="615" y2="160" class="axis" stroke-dasharray="4" />
        
        <rect x="40" y="160" width="22" height="0" fill="#3fb950" rx="3" /><rect x="40" y="161" width="22" height="0" fill="#f85149" rx="3" /><text x="51" y="285" class="text label" text-anchor="middle">4/7</text><rect x="80" y="160" width="22" height="0" fill="#3fb950" rx="3" /><rect x="80" y="161" width="22" height="0" fill="#f85149" rx="3" /><text x="91" y="285" class="text label" text-anchor="middle">4/8</text><rect x="120" y="160" width="22" height="0" fill="#3fb950" rx="3" /><rect x="120" y="161" width="22" height="0" fill="#f85149" rx="3" /><text x="131" y="285" class="text label" text-anchor="middle">4/9</text><rect x="160" y="160" width="22" height="0" fill="#3fb950" rx="3" /><rect x="160" y="161" width="22" height="0" fill="#f85149" rx="3" /><text x="171" y="285" class="text label" text-anchor="middle">4/10</text><rect x="200" y="60" width="22" height="100" fill="#3fb950" rx="3" /><rect x="200" y="161" width="22" height="2" fill="#f85149" rx="3" /><text x="211" y="285" class="text label" text-anchor="middle">4/11</text><text x="211" y="52" class="text stat add" text-anchor="middle">+99177</text><text x="211" y="178" class="text stat del" text-anchor="middle">-11</text><rect x="240" y="156.97611341339223" width="22" height="3.023886586607782" fill="#3fb950" rx="3" /><rect x="240" y="161" width="22" height="2" fill="#f85149" rx="3" /><text x="251" y="285" class="text label" text-anchor="middle">4/12</text><text x="251" y="148.97611341339223" class="text stat add" text-anchor="middle">+2999</text><text x="251" y="178" class="text stat del" text-anchor="middle">-829</text><rect x="280" y="157.60226665456707" width="22" height="2.397733345432913" fill="#3fb950" rx="3" /><rect x="280" y="161" width="22" height="2" fill="#f85149" rx="3" /><text x="291" y="285" class="text label" text-anchor="middle">4/13</text><text x="291" y="149.60226665456707" class="text stat add" text-anchor="middle">+2378</text><text x="291" y="178" class="text stat del" text-anchor="middle">-589</text><rect x="320" y="160" width="22" height="0" fill="#3fb950" rx="3" /><rect x="320" y="161" width="22" height="0" fill="#f85149" rx="3" /><text x="331" y="285" class="text label" text-anchor="middle">4/14</text><rect x="360" y="154.49670790606694" width="22" height="5.5032920939330685" fill="#3fb950" rx="3" /><rect x="360" y="161" width="22" height="2" fill="#f85149" rx="3" /><text x="371" y="285" class="text label" text-anchor="middle">4/15</text><text x="371" y="146.49670790606694" class="text stat add" text-anchor="middle">+5458</text><text x="371" y="178" class="text stat del" text-anchor="middle">-284</text><rect x="400" y="160" width="22" height="0" fill="#3fb950" rx="3" /><rect x="400" y="161" width="22" height="0" fill="#f85149" rx="3" /><text x="411" y="285" class="text label" text-anchor="middle">4/16</text><rect x="440" y="160" width="22" height="0" fill="#3fb950" rx="3" /><rect x="440" y="161" width="22" height="0" fill="#f85149" rx="3" /><text x="451" y="285" class="text label" text-anchor="middle">4/17</text><rect x="480" y="160" width="22" height="0" fill="#3fb950" rx="3" /><rect x="480" y="161" width="22" height="0" fill="#f85149" rx="3" /><text x="491" y="285" class="text label" text-anchor="middle">4/18</text><rect x="520" y="150.26084676890812" width="22" height="9.739153231091887" fill="#3fb950" rx="3" /><rect x="520" y="161" width="22" height="0" fill="#f85149" rx="3" /><text x="531" y="285" class="text label" text-anchor="middle">4/19</text><text x="531" y="142.26084676890812" class="text stat add" text-anchor="middle">+9659</text><rect x="560" y="158" width="22" height="2" fill="#3fb950" rx="3" /><rect x="560" y="161" width="22" height="2" fill="#f85149" rx="3" /><text x="571" y="285" class="text label" text-anchor="middle">4/20</text><text x="571" y="150" class="text stat add" text-anchor="middle">+376</text><text x="571" y="178" class="text stat del" text-anchor="middle">-213</text>
    </svg>