
    <svg width="640" height="320" xmlns="http://www.w3.org/2000/svg">
        <style>
            .text { font-family: -apple-system, BlinkMacSystemFont, "Segoe UI", Roboto, sans-serif; }
            .title { font-weight: 650; font-size: 17px; fill: #e6edf3; }
            .legend { font-size: 11px; fill: #8b949e; }
            .label { font-size: 10px; fill: #8b949e; }
            .axis { stroke: #30363d; stroke-width: 1; }
            .stat { font-size: 10px; font-weight: 650; }
            .add { fill: #3fb950; }
            .del { fill: #f85149; }
        </style>
        <rect width="100%" height="100%" fill="#0d1117" rx="8" stroke="#30363d" stroke-width="1"/>
        <rect x="1" y="1" width="638" height="62" fill="#111820" rx="8"/>

        <text x="25" y="39" class="text title">7-Day Code Activity</text>
        <text x="486" y="39" class="text legend">+ additions</text>
        <text x="568" y="39" class="text legend">- deletions</text>
        <line x1="25" y1="176" x2="615" y2="176" class="axis" stroke-dasharray="4" />

        <rect x="60" y="94.29633239917143" width="38" height="81.70366760082857" fill="#3fb950" rx="3" /><rect x="60" y="177" width="38" height="33.64761788716949" fill="#f85149" rx="3" /><text x="79" y="287" class="text label" text-anchor="middle">7/10</text><text x="79" y="86.29633239917143" class="text stat add" text-anchor="middle">+15.6k</text><text x="79" y="225.64761788716947" class="text stat del" text-anchor="middle">-6.4k</text><rect x="130" y="117.97331546241014" width="38" height="58.02668453758986" fill="#3fb950" rx="3" /><rect x="130" y="177" width="38" height="12.41220908980139" fill="#f85149" rx="3" /><text x="149" y="287" class="text label" text-anchor="middle">7/11</text><text x="149" y="109.97331546241014" class="text stat add" text-anchor="middle">+11.1k</text><text x="149" y="204.4122090898014" class="text stat del" text-anchor="middle">-2.4k</text><rect x="200" y="108.4270744486414" width="38" height="67.5729255513586" fill="#3fb950" rx="3" /><rect x="200" y="177" width="38" height="6.3868648714512" fill="#f85149" rx="3" /><text x="219" y="287" class="text label" text-anchor="middle">7/12</text><text x="219" y="100.4270744486414" class="text stat add" text-anchor="middle">+12.9k</text><text x="219" y="198.3868648714512" class="text stat del" text-anchor="middle">-1.2k</text><rect x="270" y="134.48275862068965" width="38" height="41.51724137931035" fill="#3fb950" rx="3" /><rect x="270" y="177" width="38" height="4.710247349823321" fill="#f85149" rx="3" /><text x="289" y="287" class="text label" text-anchor="middle">7/13</text><text x="289" y="126.48275862068965" class="text stat add" text-anchor="middle">+7.9k</text><text x="289" y="196.71024734982333" class="text stat del" text-anchor="middle">-899</text><rect x="340" y="90" width="38" height="86" fill="#3fb950" rx="3" /><rect x="340" y="177" width="38" height="12.291702205434385" fill="#f85149" rx="3" /><text x="359" y="287" class="text label" text-anchor="middle">7/14</text><text x="359" y="82" class="text stat add" text-anchor="middle">+16.4k</text><text x="359" y="204.29170220543438" class="text stat del" text-anchor="middle">-2.3k</text><rect x="410" y="161.12001949555258" width="38" height="14.879980504447422" fill="#3fb950" rx="3" /><rect x="410" y="177" width="38" height="5.375654928719386" fill="#f85149" rx="3" /><text x="429" y="287" class="text label" text-anchor="middle">7/15</text><text x="429" y="153.12001949555258" class="text stat add" text-anchor="middle">+2.8k</text><text x="429" y="197.3756549287194" class="text stat del" text-anchor="middle">-1.0k</text><rect x="480" y="170.20519069087365" width="38" height="5.7948093091263555" fill="#3fb950" rx="3" /><rect x="480" y="177" width="38" height="2" fill="#f85149" rx="3" /><text x="499" y="287" class="text label" text-anchor="middle">7/16</text><text x="499" y="162.20519069087365" class="text stat add" text-anchor="middle">+1.1k</text><text x="499" y="194" class="text stat del" text-anchor="middle">-75</text>
    </svg>