
    <svg width="640" height="320" xmlns="http://www.w3.org/2000/svg">
        <style>
            .text { font-family: -apple-system, BlinkMacSystemFont, "Segoe UI", Roboto, sans-serif; }
            .title { font-weight: 650; font-size: 17px; fill: #e6edf3; }
            .legend { font-size: 11px; fill: #8b949e; }
            .label { font-size: 10px; fill: #8b949e; }
            .axis { stroke: #30363d; stroke-width: 1; }
            .stat { font-size: 10px; font-weight: 650; }
            .add { fill: #3fb950; }
            .del { fill: #f85149; }
        </style>
        <rect width="100%" height="100%" fill="#0d1117" rx="8" stroke="#30363d" stroke-width="1"/>
        <rect x="1" y="1" width="638" height="62" fill="#111820" rx="8"/>

        <text x="25" y="39" class="text title">7-Day Code Activity</text>
        <text x="486" y="39" class="text legend">+ additions</text>
        <text x="568" y="39" class="text legend">- deletions</text>
        <line x1="25" y1="176" x2="615" y2="176" class="axis" stroke-dasharray="4" />

        <rect x="60" y="165.5793635105752" width="38" height="10.420636489424787" fill="#3fb950" rx="3" /><rect x="60" y="177" width="38" height="2" fill="#f85149" rx="3" /><text x="79" y="287" class="text label" text-anchor="middle">4/18</text><text x="79" y="157.5793635105752" class="text stat add" text-anchor="middle">+1.8k</text><text x="79" y="194" class="text stat del" text-anchor="middle">-344</text><rect x="130" y="121.2675759372735" width="38" height="54.73242406272649" fill="#3fb950" rx="3" /><rect x="130" y="177" width="38" height="0" fill="#f85149" rx="3" /><text x="149" y="287" class="text label" text-anchor="middle">4/19</text><text x="149" y="113.2675759372735" class="text stat add" text-anchor="middle">+9.7k</text><rect x="200" y="90" width="38" height="86" fill="#3fb950" rx="3" /><rect x="200" y="177" width="38" height="8.420372932727153" fill="#f85149" rx="3" /><text x="219" y="287" class="text label" text-anchor="middle">4/20</text><text x="219" y="82" class="text stat add" text-anchor="middle">+15.2k</text><text x="219" y="200.42037293272716" class="text stat del" text-anchor="middle">-1.5k</text><rect x="270" y="158.90992949858338" width="38" height="17.09007050141662" fill="#3fb950" rx="3" /><rect x="270" y="177" width="38" height="2" fill="#f85149" rx="3" /><text x="289" y="287" class="text label" text-anchor="middle">4/21</text><text x="289" y="150.90992949858338" class="text stat add" text-anchor="middle">+3.0k</text><text x="289" y="194" class="text stat del" text-anchor="middle">-80</text><rect x="340" y="138.2499835277064" width="38" height="37.7500164722936" fill="#3fb950" rx="3" /><rect x="340" y="177" width="38" height="11.786255518218356" fill="#f85149" rx="3" /><text x="359" y="287" class="text label" text-anchor="middle">4/22</text><text x="359" y="130.2499835277064" class="text stat add" text-anchor="middle">+6.7k</text><text x="359" y="203.78625551821835" class="text stat del" text-anchor="middle">-2.1k</text><rect x="410" y="138.0516571127364" width="38" height="37.94834288726362" fill="#3fb950" rx="3" /><rect x="410" y="177" width="38" height="38.98530671410687" fill="#f85149" rx="3" /><text x="429" y="287" class="text label" text-anchor="middle">4/23</text><text x="429" y="130.0516571127364" class="text stat add" text-anchor="middle">+6.7k</text><text x="429" y="230.98530671410685" class="text stat del" text-anchor="middle">-6.9k</text><rect x="480" y="109.475653950056" width="38" height="66.524346049944" fill="#3fb950" rx="3" /><rect x="480" y="177" width="38" height="8.31837649074257" fill="#f85149" rx="3" /><text x="499" y="287" class="text label" text-anchor="middle">4/24</text><text x="499" y="101.475653950056" class="text stat add" text-anchor="middle">+11.7k</text><text x="499" y="200.31837649074257" class="text stat del" text-anchor="middle">-1.5k</text>
    </svg>