
    <svg width="640" height="320" xmlns="http://www.w3.org/2000/svg">
        <style>
            .text { font-family: -apple-system, BlinkMacSystemFont, "Segoe UI", Roboto, sans-serif; }
            .title { font-weight: 650; font-size: 17px; fill: #e6edf3; }
            .legend { font-size: 11px; fill: #8b949e; }
            .label { font-size: 10px; fill: #8b949e; }
            .axis { stroke: #30363d; stroke-width: 1; }
            .stat { font-size: 10px; font-weight: 650; }
            .add { fill: #3fb950; }
            .del { fill: #f85149; }
        </style>
        <rect width="100%" height="100%" fill="#0d1117" rx="8" stroke="#30363d" stroke-width="1"/>
        <rect x="1" y="1" width="638" height="62" fill="#111820" rx="8"/>

        <text x="25" y="39" class="text title">7-Day Code Activity</text>
        <text x="486" y="39" class="text legend">+ additions</text>
        <text x="568" y="39" class="text legend">- deletions</text>
        <line x1="25" y1="176" x2="615" y2="176" class="axis" stroke-dasharray="4" />

        <rect x="60" y="147.3733546071001" width="38" height="28.626645392899878" fill="#3fb950" rx="3" /><rect x="60" y="177" width="38" height="2.6585560430793778" fill="#f85149" rx="3" /><text x="79" y="287" class="text label" text-anchor="middle">5/15</text><text x="79" y="139.3733546071001" class="text stat add" text-anchor="middle">+3.3k</text><text x="79" y="194.6585560430794" class="text stat del" text-anchor="middle">-310</text><rect x="130" y="90" width="38" height="86" fill="#3fb950" rx="3" /><rect x="130" y="177" width="38" height="79.7909852413243" fill="#f85149" rx="3" /><text x="149" y="287" class="text label" text-anchor="middle">5/16</text><text x="149" y="82" class="text stat add" text-anchor="middle">+10.0k</text><text x="149" y="271.7909852413243" class="text stat del" text-anchor="middle">-9.3k</text><rect x="200" y="168.89908256880733" width="38" height="7.100917431192661" fill="#3fb950" rx="3" /><rect x="200" y="177" width="38" height="2" fill="#f85149" rx="3" /><text x="219" y="287" class="text label" text-anchor="middle">5/17</text><text x="219" y="160.89908256880733" class="text stat add" text-anchor="middle">+828</text><text x="219" y="194" class="text stat del" text-anchor="middle">-20</text><rect x="270" y="176" width="38" height="0" fill="#3fb950" rx="3" /><rect x="270" y="177" width="38" height="0" fill="#f85149" rx="3" /><text x="289" y="287" class="text label" text-anchor="middle">5/18</text><rect x="340" y="176" width="38" height="0" fill="#3fb950" rx="3" /><rect x="340" y="177" width="38" height="0" fill="#f85149" rx="3" /><text x="359" y="287" class="text label" text-anchor="middle">5/19</text><rect x="410" y="176" width="38" height="0" fill="#3fb950" rx="3" /><rect x="410" y="177" width="38" height="0" fill="#f85149" rx="3" /><text x="429" y="287" class="text label" text-anchor="middle">5/20</text><rect x="480" y="176" width="38" height="0" fill="#3fb950" rx="3" /><rect x="480" y="177" width="38" height="0" fill="#f85149" rx="3" /><text x="499" y="287" class="text label" text-anchor="middle">5/21</text>
    </svg>