
    <svg width="640" height="320" xmlns="http://www.w3.org/2000/svg">
        <style>
            .text { font-family: -apple-system, BlinkMacSystemFont, "Segoe UI", Roboto, sans-serif; }
            .title { font-weight: 650; font-size: 17px; fill: #e6edf3; }
            .legend { font-size: 11px; fill: #8b949e; }
            .label { font-size: 10px; fill: #8b949e; }
            .axis { stroke: #30363d; stroke-width: 1; }
            .stat { font-size: 10px; font-weight: 650; }
            .add { fill: #3fb950; }
            .del { fill: #f85149; }
        </style>
        <rect width="100%" height="100%" fill="#0d1117" rx="8" stroke="#30363d" stroke-width="1"/>
        <rect x="1" y="1" width="638" height="62" fill="#111820" rx="8"/>

        <text x="25" y="39" class="text title">7-Day Code Activity</text>
        <text x="486" y="39" class="text legend">+ additions</text>
        <text x="568" y="39" class="text legend">- deletions</text>
        <line x1="25" y1="176" x2="615" y2="176" class="axis" stroke-dasharray="4" />

        <rect x="60" y="90" width="38" height="86" fill="#3fb950" rx="3" /><rect x="60" y="177" width="38" height="2" fill="#f85149" rx="3" /><text x="79" y="287" class="text label" text-anchor="middle">7/1</text><text x="79" y="82" class="text stat add" text-anchor="middle">+86.5k</text><text x="79" y="194" class="text stat del" text-anchor="middle">-249</text><rect x="130" y="169.09185053339652" width="38" height="6.908149466603484" fill="#3fb950" rx="3" /><rect x="130" y="177" width="38" height="2" fill="#f85149" rx="3" /><text x="149" y="287" class="text label" text-anchor="middle">7/2</text><text x="149" y="161.09185053339652" class="text stat add" text-anchor="middle">+7.0k</text><text x="149" y="194" class="text stat del" text-anchor="middle">-998</text><rect x="200" y="168.02531177402017" width="38" height="7.97468822597982" fill="#3fb950" rx="3" /><rect x="200" y="177" width="38" height="2.5614821835161408" fill="#f85149" rx="3" /><text x="219" y="287" class="text label" text-anchor="middle">7/3</text><text x="219" y="160.02531177402017" class="text stat add" text-anchor="middle">+8.0k</text><text x="219" y="194.56148218351615" class="text stat del" text-anchor="middle">-2.6k</text><rect x="270" y="173.27152945527675" width="38" height="2.7284705447232467" fill="#3fb950" rx="3" /><rect x="270" y="177" width="38" height="2" fill="#f85149" rx="3" /><text x="289" y="287" class="text label" text-anchor="middle">7/4</text><text x="289" y="165.27152945527675" class="text stat add" text-anchor="middle">+2.7k</text><text x="289" y="194" class="text stat del" text-anchor="middle">-339</text><rect x="340" y="176" width="38" height="0" fill="#3fb950" rx="3" /><rect x="340" y="177" width="38" height="0" fill="#f85149" rx="3" /><text x="359" y="287" class="text label" text-anchor="middle">7/5</text><rect x="410" y="174" width="38" height="2" fill="#3fb950" rx="3" /><rect x="410" y="177" width="38" height="2" fill="#f85149" rx="3" /><text x="429" y="287" class="text label" text-anchor="middle">7/6</text><text x="429" y="166" class="text stat add" text-anchor="middle">+253</text><text x="429" y="194" class="text stat del" text-anchor="middle">-198</text><rect x="480" y="176" width="38" height="0" fill="#3fb950" rx="3" /><rect x="480" y="177" width="38" height="0" fill="#f85149" rx="3" /><text x="499" y="287" class="text label" text-anchor="middle">7/7</text>
    </svg>