
    <svg width="640" height="320" xmlns="http://www.w3.org/2000/svg">
        <style>
            .text { font-family: -apple-system, BlinkMacSystemFont, "Segoe UI", Roboto, sans-serif; }
            .title { font-weight: 650; font-size: 17px; fill: #e6edf3; }
            .legend { font-size: 11px; fill: #8b949e; }
            .label { font-size: 10px; fill: #8b949e; }
            .axis { stroke: #30363d; stroke-width: 1; }
            .stat { font-size: 10px; font-weight: 650; }
            .add { fill: #3fb950; }
            .del { fill: #f85149; }
        </style>
        <rect width="100%" height="100%" fill="#0d1117" rx="8" stroke="#30363d" stroke-width="1"/>
        <rect x="1" y="1" width="638" height="62" fill="#111820" rx="8"/>

        <text x="25" y="39" class="text title">7-Day Code Activity</text>
        <text x="486" y="39" class="text legend">+ additions</text>
        <text x="568" y="39" class="text legend">- deletions</text>
        <line x1="25" y1="176" x2="615" y2="176" class="axis" stroke-dasharray="4" />

        <rect x="60" y="90" width="38" height="86" fill="#3fb950" rx="3" /><rect x="60" y="177" width="38" height="7.055811036789297" fill="#f85149" rx="3" /><text x="79" y="287" class="text label" text-anchor="middle">5/14</text><text x="79" y="82" class="text stat add" text-anchor="middle">+19.1k</text><text x="79" y="199.0558110367893" class="text stat del" text-anchor="middle">-1.6k</text><rect x="130" y="160.99853678929765" width="38" height="15.001463210702342" fill="#3fb950" rx="3" /><rect x="130" y="177" width="38" height="2" fill="#f85149" rx="3" /><text x="149" y="287" class="text label" text-anchor="middle">5/15</text><text x="149" y="152.99853678929765" class="text stat add" text-anchor="middle">+3.3k</text><text x="149" y="194" class="text stat del" text-anchor="middle">-310</text><rect x="200" y="130.93269230769232" width="38" height="45.06730769230769" fill="#3fb950" rx="3" /><rect x="200" y="177" width="38" height="41.81354515050167" fill="#f85149" rx="3" /><text x="219" y="287" class="text label" text-anchor="middle">5/16</text><text x="219" y="122.93269230769232" class="text stat add" text-anchor="middle">+10.0k</text><text x="219" y="233.81354515050168" class="text stat del" text-anchor="middle">-9.3k</text><rect x="270" y="172.27884615384616" width="38" height="3.7211538461538463" fill="#3fb950" rx="3" /><rect x="270" y="177" width="38" height="2" fill="#f85149" rx="3" /><text x="289" y="287" class="text label" text-anchor="middle">5/17</text><text x="289" y="164.27884615384616" class="text stat add" text-anchor="middle">+828</text><text x="289" y="194" class="text stat del" text-anchor="middle">-20</text><rect x="340" y="176" width="38" height="0" fill="#3fb950" rx="3" /><rect x="340" y="177" width="38" height="0" fill="#f85149" rx="3" /><text x="359" y="287" class="text label" text-anchor="middle">5/18</text><rect x="410" y="176" width="38" height="0" fill="#3fb950" rx="3" /><rect x="410" y="177" width="38" height="0" fill="#f85149" rx="3" /><text x="429" y="287" class="text label" text-anchor="middle">5/19</text><rect x="480" y="176" width="38" height="0" fill="#3fb950" rx="3" /><rect x="480" y="177" width="38" height="0" fill="#f85149" rx="3" /><text x="499" y="287" class="text label" text-anchor="middle">5/20</text>
    </svg>